<?xml version="1.0" standalone="no"?><!DOCTYPE svg PUBLIC "-//W3C//DTD SVG 1.1//EN" "http://www.w3.org/Graphics/SVG/1.1/DTD/svg11.dtd"><svg t="1569063292578" class="icon" viewBox="0 0 1024 1024" version="1.1" xmlns="http://www.w3.org/2000/svg" p-id="1252" xmlns:xlink="http://www.w3.org/1999/xlink" width="200" height="200"><defs><style type="text/css"></style></defs><path d="M882.553 271.40299999l-66.652-66.652L894.352 126.29999999s67.244-1.399 67.244 65.845l-79.043 79.258z m-727.882 34.214v627.609H782.28V507.34799999l89.658-89.658v515.536c0 49.518-40.14 89.658-89.658 89.658H154.671c-49.518 0-89.658-40.14-89.658-89.658V305.61699999c0-49.518 40.14-89.658 89.658-89.658h515.536l-89.658 89.658H154.671zM378.817 709.07999999v-67.244l33.622-33.622 67.199 67.199-33.578 33.667h-67.243z m458.965-392.789L502.021 652.96699999 434.853 585.79999999l336.219-336.219 66.71 66.71z" p-id="1253" fill="#1296db"></path></svg>