<?xml version="1.0" standalone="no"?><!DOCTYPE svg PUBLIC "-//W3C//DTD SVG 1.1//EN" "http://www.w3.org/Graphics/SVG/1.1/DTD/svg11.dtd"><svg t="1568450900950" class="icon" viewBox="0 0 1024 1024" version="1.1" xmlns="http://www.w3.org/2000/svg" p-id="1655" xmlns:xlink="http://www.w3.org/1999/xlink" width="200" height="200"><defs><style type="text/css"></style></defs><path d="M516.65554869 451.47786963L465.44451505 498.03335458l-51.21103364-46.55548496c-9.31109674-9.31109674-23.27774279-9.31109674-32.58883953 1e-8-9.31109674 4.65554869-9.31109674 23.27774279 0 32.58883953l27.93329084 27.93329084c-9.31109674 0-13.96664542 9.31109674-13.96664542 18.6221941 0 13.96664542 9.31109674 23.27774279 23.27774279 23.27774217h23.27774217v27.93329147H418.88903009c-13.96664542 0-23.27774279 9.31109674-23.27774279 23.27774217s9.31109674 23.27774279 23.2777428 23.27774279h23.27774216v23.27774216c0 13.96664542 9.31109674 23.27774279 23.27774278 23.2777428s23.27774279-9.31109674 23.27774216-23.2777428v-23.27774216H512c13.96664542 0 23.27774279-9.31109674 23.27774279-23.27774279s-9.31109674-23.27774279-23.27774279-23.27774217h-23.27774279v-27.93329147H512c13.96664542 0 23.27774279-9.31109674 23.27774279-23.27774217 0-9.31109674-4.65554869-18.6221941-13.96664604-18.6221941l27.93329147-27.93329084c9.31109674-9.31109674 9.31109674-27.93329084 0-32.58883953-9.31109674-9.31109674-23.27774279-9.31109674-32.58883953 0zM674.94419766 325.77805955h-418.99936522C218.70044422 325.77805955 186.11160469 358.36689908 186.11160469 395.6112873v325.88839531c0 37.24438822 32.58883953 69.83322774 69.83322775 69.83322775h418.99936522c37.24438822 0 69.83322774-32.58883953 69.83322774-69.83322775v-325.88839531c0-37.24438822-32.58883953-69.83322774-69.83322774-69.83322774z m23.27774278 395.72162305c0 13.96664542-9.31109674 23.27774279-23.27774278 23.27774279h-418.99936522c-13.96664542 0-23.27774279-9.31109674-23.27774279-23.27774279v-325.88839531c0-13.96664542 9.31109674-23.27774279 23.27774279-23.27774216h418.99936522c13.96664542 0 23.27774279 9.31109674 23.27774278 23.27774216v325.88839531zM768.05516756 232.66708964h-418.99936522c-13.96664542 0-23.27774279 9.31109674-23.27774278 23.2777428s9.31109674 23.27774279 23.27774278 23.27774216h418.99936522c13.96664542 0 23.27774279 9.31109674 23.2777428 23.27774279v325.88839532c0 13.96664542 9.31109674 23.27774279 23.27774216 23.27774215s23.27774279-9.31109674 23.27774279-23.27774216v-325.8883953c0-37.24438822-32.58883953-69.83322774-69.83322775-69.83322776z" p-id="1656"></path></svg>