<?xml version="1.0" standalone="no"?><!DOCTYPE svg PUBLIC "-//W3C//DTD SVG 1.1//EN" "http://www.w3.org/Graphics/SVG/1.1/DTD/svg11.dtd"><svg t="1568450863775" class="icon" viewBox="0 0 1024 1024" version="1.1" xmlns="http://www.w3.org/2000/svg" p-id="1294" xmlns:xlink="http://www.w3.org/1999/xlink" width="200" height="200"><defs><style type="text/css"></style></defs><path d="M818.24768 442.46016l-293.54496-232.20224a20.48512 20.48512 0 0 0-25.41056 0L205.75232 442.46016a20.48 20.48 0 0 0 25.41056 32.128l13.27104-10.496v317.91616a36.19328 36.19328 0 0 0 36.15232 36.15232h168.73472a20.48 20.48 0 0 0 20.48-20.48v-154.92608h84.40832v154.92608a20.48 20.48 0 0 0 20.48 20.48H743.424a36.19328 36.19328 0 0 0 36.15232-36.15232V464.09216l13.27104 10.496a20.3776 20.3776 0 0 0 12.69248 4.41856c6.04672 0 12.032-2.66752 16.0768-7.77728a20.49536 20.49536 0 0 0-3.36896-28.76928z m-79.6416 334.73536h-143.44192v-139.25888a36.19328 36.19328 0 0 0-36.15232-36.15232H464.98816a36.18816 36.18816 0 0 0-36.15232 36.15232v139.25888H285.39392V431.68768L512 252.43648l226.60608 179.25632v345.50272z" p-id="1295"></path></svg>