<?xml version="1.0" standalone="no"?><!DOCTYPE svg PUBLIC "-//W3C//DTD SVG 1.1//EN" "http://www.w3.org/Graphics/SVG/1.1/DTD/svg11.dtd"><svg t="1568450892064" class="icon" viewBox="0 0 1024 1024" version="1.1" xmlns="http://www.w3.org/2000/svg" p-id="1534" xmlns:xlink="http://www.w3.org/1999/xlink" width="200" height="200"><defs><style type="text/css"></style></defs><path d="M508.91623845 813.81479038a298.73102883 298.73102883 0 0 1 0-597.46205828 27.15736648 27.15736648 0 0 1 27.15736649 27.15736648v244.41629648h244.41629648a27.15736648 27.15736648 0 0 1 27.15736648 27.15736649 298.73102883 298.73102883 0 0 1-298.73102945 298.73102882z m-27.15736586-543.14732532a244.41629648 244.41629648 0 1 0 271.57366235 271.57366235h-244.41629649a27.15736648 27.15736648 0 0 1-27.15736586-27.15736586z" p-id="1535"></path><path d="M807.6472679 460.76902858h-230.83761354a13.8502568 13.8502568 0 0 1-13.57868294-13.57868294v-230.83761354a13.57868292 13.57868292 0 0 1 13.57868294-13.57868293 244.41629648 244.41629648 0 0 1 244.41629647 244.41629647 13.57868292 13.57868292 0 0 1-13.57868293 13.57868294z m-217.25893062-27.15736586h203.40867382a217.25893 217.25893 0 0 0-203.40867382-203.40867382z" p-id="1536"></path></svg>