<?xml version="1.0" standalone="no"?><!DOCTYPE svg PUBLIC "-//W3C//DTD SVG 1.1//EN" "http://www.w3.org/Graphics/SVG/1.1/DTD/svg11.dtd"><svg t="1568450874782" class="icon" viewBox="0 0 1024 1024" version="1.1" xmlns="http://www.w3.org/2000/svg" p-id="1414" xmlns:xlink="http://www.w3.org/1999/xlink" width="200" height="200"><defs><style type="text/css"></style></defs><path d="M805.29955578 270.51669908c-10.75431705-9.12487507-24.76751804-12.70964742-38.45483065-10.10254026L373.82332039 377.40809274H249.65984178c-30.95939755 0-56.052804 25.09340644-56.052804 56.052804v119.27515266c0 30.95939755 25.09340644 56.052804 56.052804 56.052804h36.17361189l77.88732646 153.1675458c3.91066074 7.49543309 11.40609383 11.73198223 19.55330372 11.73198223 3.25888396 0 6.5177679-0.65177679 9.77665186-2.28121876 10.75431705-5.54010272 14.99086619-18.57563853 9.45076346-29.32995559l-67.78478623-133.28835368h39.43249584L764.56350637 720.568573l2.28121876 0.65177679c2.60710716 0.32588839 5.21421433 0.65177679 7.82132149 0.65177679 11.08020545 0 21.83452249-3.91066074 30.30762076-11.08020544 10.75431705-9.12487507 16.62030817-22.16041088 16.62030817-35.84772348V306.69031095c0.32588839-14.013201-5.54010272-27.04873681-16.29441977-36.17361187zM236.95019436 552.7360494V433.46089674c0-6.84365631 5.86599112-12.38375903 12.38375902-12.38375904h111.45383119v145.02033592l-111.45383119-0.65177679c-6.5177679-0.32588839-12.38375903-5.86599112-12.38375902-12.70964742z m541.62651301 121.88225986c0 1.30355359-0.65177679 2.28121877-1.30355358 2.93299556-0.32588839 0.32588839-1.30355359 0.97766519-2.28121877 0.97766519l-66.48123264-18.90152694V430.52790117a21.83452249 21.83452249 0 0 0-43.66904498 0v216.38989448l-261.36249303-74.95433091c0-0.97766519 0.65177679-1.95533037 0.65177678-2.93299556v-156.42642974l370.53510547-109.82438923c0.97766519 0 1.95533037 0.32588839 2.28121876 0.97766518 0.65177679 0.65177679 1.30355359 1.30355359 1.30355358 2.93299557v367.9279983z" p-id="1415"></path></svg>